<mxfile host="app.diagrams.net" modified="2024-04-11T06:27:55.211Z" agent="Mozilla/5.0 (Windows NT 10.0; Win64; x64) AppleWebKit/537.36 (KHTML, like Gecko) Chrome/123.0.0.0 Safari/537.36" version="24.2.3" etag="NeFlsPvq2Gd0-f5cP1iC" type="github">
  <diagram name="Page-1" id="5h4hZeIoqxTKrXQsNiOi">
    <mxGraphModel>
      <root>
        <mxCell id="0" />
        <mxCell id="1" parent="0" />
      </root>
    </mxGraphModel>
  </diagram>
</mxfile>
